<svg xmlns="http://www.w3.org/2000/svg" xmlns:xlink="http://www.w3.org/1999/xlink" width="512" zoomAndPan="magnify" viewBox="0 0 384 383.999986" height="512" preserveAspectRatio="xMidYMid meet" version="1.0"><defs><clipPath id="ad61c91649"><path d="M 5 6 L 378.914062 6 L 378.914062 375.941406 L 5 375.941406 Z M 5 6 " clip-rule="nonzero"/></clipPath><clipPath id="051006c58a"><path d="M 203.0625 11.210938 L 224.738281 33.1875 C 231.628906 40.171875 241.609375 43.148438 251.195312 41.078125 L 281.605469 34.519531 C 290.105469 32.6875 298.488281 38.09375 300.320312 46.597656 L 306.878906 77.003906 C 308.945312 86.589844 315.777344 94.449219 324.984375 97.832031 L 354.214844 108.570312 C 358.121094 110.003906 361.289062 112.941406 363.011719 116.726562 C 364.734375 120.511719 364.867188 124.828125 363.386719 128.714844 L 352.414062 157.484375 C 348.917969 166.644531 350.367188 176.957031 356.25 184.800781 L 375.148438 210 C 377.648438 213.332031 378.714844 217.527344 378.109375 221.648438 C 377.503906 225.769531 375.28125 229.480469 371.929688 231.953125 L 346.871094 250.445312 C 338.988281 256.265625 334.65625 265.734375 335.40625 275.503906 L 337.792969 306.496094 C 338.109375 310.648438 336.757812 314.753906 334.035156 317.902344 C 331.308594 321.050781 327.4375 322.976562 323.285156 323.257812 L 292.3125 325.34375 C 282.53125 326 273.761719 331.621094 269.078125 340.238281 L 254.121094 367.761719 C 252.136719 371.414062 248.769531 374.121094 244.773438 375.273438 C 240.777344 376.429688 236.488281 375.933594 232.859375 373.898438 L 205.738281 358.699219 C 197.203125 353.917969 186.796875 353.917969 178.261719 358.699219 L 151.140625 373.898438 C 147.511719 375.933594 143.222656 376.429688 139.226562 375.273438 C 135.230469 374.121094 131.863281 371.414062 129.878906 367.761719 L 114.921875 340.238281 C 110.238281 331.621094 101.46875 326 91.6875 325.34375 L 60.714844 323.257812 C 56.5625 322.976562 52.691406 321.050781 49.964844 317.902344 C 47.242188 314.753906 45.886719 310.648438 46.207031 306.496094 L 48.59375 275.503906 C 49.34375 265.734375 45.011719 256.265625 37.128906 250.445312 L 12.070312 231.953125 C 8.71875 229.480469 6.496094 225.769531 5.890625 221.648438 C 5.285156 217.527344 6.351562 213.332031 8.851562 210 L 27.75 184.800781 C 33.632812 176.957031 35.082031 166.644531 31.585938 157.484375 L 20.613281 128.714844 C 19.132812 124.828125 19.265625 120.511719 20.988281 116.726562 C 22.710938 112.941406 25.878906 110.003906 29.785156 108.570312 L 59.015625 97.832031 C 68.222656 94.449219 75.054688 86.589844 77.121094 77.003906 L 83.679688 46.597656 C 85.511719 38.09375 93.894531 32.6875 102.394531 34.519531 L 132.804688 41.078125 C 142.390625 43.148438 152.371094 40.171875 159.261719 33.1875 L 180.9375 11.210938 C 183.859375 8.253906 187.84375 6.585938 192 6.585938 C 196.15625 6.585938 200.140625 8.253906 203.0625 11.210938 Z M 203.0625 11.210938 " clip-rule="nonzero"/></clipPath><clipPath id="cf59e7f4e8"><path d="M 0.28125 0.480469 L 373.71875 0.480469 L 373.71875 369.941406 L 0.28125 369.941406 Z M 0.28125 0.480469 " clip-rule="nonzero"/></clipPath><clipPath id="6c2a0287b3"><path d="M 198.0625 5.210938 L 219.738281 27.1875 C 226.628906 34.171875 236.609375 37.148438 246.195312 35.078125 L 276.605469 28.519531 C 285.105469 26.6875 293.488281 32.09375 295.320312 40.597656 L 301.878906 71.003906 C 303.945312 80.589844 310.777344 88.449219 319.984375 91.832031 L 349.214844 102.570312 C 353.121094 104.003906 356.289062 106.941406 358.011719 110.726562 C 359.734375 114.511719 359.867188 118.828125 358.386719 122.714844 L 347.414062 151.484375 C 343.917969 160.644531 345.367188 170.957031 351.25 178.800781 L 370.148438 204 C 372.648438 207.332031 373.714844 211.527344 373.109375 215.648438 C 372.503906 219.769531 370.28125 223.480469 366.929688 225.953125 L 341.871094 244.445312 C 333.988281 250.265625 329.65625 259.734375 330.40625 269.503906 L 332.792969 300.496094 C 333.109375 304.648438 331.757812 308.753906 329.035156 311.902344 C 326.308594 315.050781 322.4375 316.976562 318.285156 317.257812 L 287.3125 319.34375 C 277.53125 320 268.761719 325.621094 264.078125 334.238281 L 249.121094 361.761719 C 247.136719 365.414062 243.769531 368.121094 239.773438 369.273438 C 235.777344 370.429688 231.488281 369.933594 227.859375 367.898438 L 200.738281 352.699219 C 192.203125 347.917969 181.796875 347.917969 173.261719 352.699219 L 146.140625 367.898438 C 142.511719 369.933594 138.222656 370.429688 134.226562 369.273438 C 130.230469 368.121094 126.863281 365.414062 124.878906 361.761719 L 109.921875 334.238281 C 105.238281 325.621094 96.46875 320 86.6875 319.34375 L 55.714844 317.257812 C 51.5625 316.976562 47.691406 315.050781 44.964844 311.902344 C 42.242188 308.753906 40.886719 304.648438 41.207031 300.496094 L 43.59375 269.503906 C 44.34375 259.734375 40.011719 250.265625 32.128906 244.445312 L 7.070312 225.953125 C 3.71875 223.480469 1.496094 219.769531 0.890625 215.648438 C 0.285156 211.527344 1.351562 207.332031 3.851562 204 L 22.75 178.800781 C 28.632812 170.957031 30.082031 160.644531 26.585938 151.484375 L 15.613281 122.714844 C 14.132812 118.828125 14.265625 114.511719 15.988281 110.726562 C 17.710938 106.941406 20.878906 104.003906 24.785156 102.570312 L 54.015625 91.832031 C 63.222656 88.449219 70.054688 80.589844 72.121094 71.003906 L 78.679688 40.597656 C 80.511719 32.09375 88.894531 26.6875 97.394531 28.519531 L 127.804688 35.078125 C 137.390625 37.148438 147.371094 34.171875 154.261719 27.1875 L 175.9375 5.210938 C 178.859375 2.253906 182.84375 0.585938 187 0.585938 C 191.15625 0.585938 195.140625 2.253906 198.0625 5.210938 Z M 198.0625 5.210938 " clip-rule="nonzero"/></clipPath><clipPath id="5845d1d2f6"><rect x="0" width="374" y="0" height="370"/></clipPath><clipPath id="b008db6a2a"><path d="M 41.117188 41.117188 L 342.617188 41.117188 L 342.617188 342.617188 L 41.117188 342.617188 Z M 41.117188 41.117188 " clip-rule="nonzero"/></clipPath></defs><g clip-path="url(#ad61c91649)"><g clip-path="url(#051006c58a)"><g transform="matrix(1, 0, 0, 1, 5, 6)"><g clip-path="url(#5845d1d2f6)"><g clip-path="url(#cf59e7f4e8)"><g clip-path="url(#6c2a0287b3)"><rect x="-89.48" width="552.96" fill="#6468f0" height="552.959979" y="-90.479997" fill-opacity="1"/></g></g></g></g></g></g><g clip-path="url(#b008db6a2a)"><path fill="#6468f0" d="M 192.058594 342.953125 C 108.722656 342.953125 41.164062 275.394531 41.164062 192.058594 C 41.164062 108.722656 108.722656 41.164062 192.058594 41.164062 C 275.394531 41.164062 342.953125 108.722656 342.953125 192.058594 C 342.953125 275.394531 275.394531 342.953125 192.058594 342.953125 " fill-opacity="1" fill-rule="nonzero"/></g><path fill="#ffffff" d="M 232.355469 146.4375 L 178.035156 200.753906 C 176.820312 201.96875 174.851562 201.96875 173.636719 200.753906 L 152.3125 179.429688 C 143.898438 171.015625 130.261719 171.015625 121.851562 179.429688 C 113.4375 187.839844 113.4375 201.476562 121.851562 209.886719 L 160.609375 248.644531 C 169.015625 257.050781 182.652344 257.050781 191.0625 248.644531 L 206.292969 233.414062 L 262.8125 176.898438 C 271.222656 168.484375 271.222656 154.847656 262.8125 146.4375 C 254.398438 138.027344 240.761719 138.027344 232.355469 146.4375 " fill-opacity="1" fill-rule="nonzero"/></svg>